<?xml version="1.0" encoding="UTF-8" standalone="no"?>
<svg width="70px" height="70px" viewBox="0 0 70 70" version="1.1" xmlns="http://www.w3.org/2000/svg" xmlns:xlink="http://www.w3.org/1999/xlink" xmlns:sketch="http://www.bohemiancoding.com/sketch/ns">
    <title>arrow.svg</title>
    <description>Created with Sketch (http://www.bohemiancoding.com/sketch)</description>
    <defs>
        <path d="M27.4322767,3.795 L27.4278112,3.795 C26.9766718,3.795 26.610951,4.16368715 26.610951,4.62963101 L26.610951,11.5444856 C23.1999997,12.1077492 20.6542307,14.0991209 20.5373388,16.4928438 L20.5373388,16.4928438 C20.4316362,16.6312246 20.3688761,16.8050293 20.3688761,16.9959634 L20.3688761,19.9640366 C20.3688761,20.1501515 20.4311252,20.321889 20.5355194,20.46 L19.0575645,20.46 C18.6024073,20.46 18.2334294,20.8284047 18.2334294,21.2947851 L18.2334294,27.7102149 C18.2334294,27.8999041 18.2972334,28.0748162 18.4034873,28.215 L12.1659294,28.215 C11.7066298,28.215 11.3342939,28.5865534 11.3342939,29.0391657 L11.3342939,30.855 L11.3342939,30.855 L1.10036163,30.855 C0.492648684,30.855 0,31.3558494 0,31.9575771 L0,49.2224229 C0,49.8313594 0.492768288,50.325 1.10036163,50.325 L55.8996384,50.325 C56.5073513,50.325 57,49.8241506 57,49.2224229 L57,31.9575771 C57,31.3486406 56.5072317,30.855 55.8996384,30.855 L45.6657061,30.855 L45.6657061,29.0391657 C45.6657061,28.5839915 45.3033774,28.215 44.8340706,28.215 L38.7648634,28.215 L38.7648607,28.215 C38.8690517,28.0754971 38.9308357,27.9010588 38.9308357,27.7102149 L38.9308357,21.2947851 C38.9308357,20.833746 38.5539253,20.46 38.1067006,20.46 L36.6323307,20.46 L36.6323307,20.46 C36.7347647,20.3228044 36.795389,20.1516937 36.795389,19.9640366 L36.795389,16.9959634 C36.795389,16.8089144 36.7325135,16.6363875 36.6271707,16.497923 C36.5136349,14.1019383 33.9666778,12.1081476 30.5533141,11.5444856 L30.5533141,11.5444856 L30.5533141,4.62963101 C30.5533141,4.16867703 30.1894925,3.795 29.7364539,3.795 L29.7319885,3.795 L29.7319885,0.833483391 C29.7319885,0.373163225 29.3625,0 28.9017397,0 L28.2625254,0 C27.8039917,0 27.4322767,0.375470924 27.4322767,0.833483391 L27.4322767,3.795 Z" id="path-1"></path>
    </defs>
    <g id="Page-1" stroke="none" stroke-width="1" fill="none" fill-rule="evenodd" sketch:type="MSPage">
        <g id="Artboard-1" sketch:type="MSArtboardGroup">
            <g id="capitol-icon" sketch:type="MSLayerGroup" transform="translate(7.000000, 5.000000)">
                <mask id="mask-2" sketch:name="Rectangle 4" fill="white">
                    <use xlink:href="#path-1"></use>
                </mask>
                <use id="Rectangle-4" fill="#FFFFFF" sketch:type="MSShapeGroup" xlink:href="#path-1"></use>
                <g id="Group" mask="url(#mask-2)" transform="translate(19.711816, 21.450000)" fill="#4A4A4A" sketch:type="MSShapeGroup">
                    <rect id="Rectangle-10" x="-3.55271368e-15" y="0" width="1.14985591" height="6.435" rx="0.825"></rect>
                    <rect id="Rectangle-10" x="2.7925072" y="0" width="1.14985591" height="6.435" rx="0.825"></rect>
                    <rect id="Rectangle-10" x="5.58501441" y="0" width="1.14985591" height="6.435" rx="0.825"></rect>
                    <rect id="Rectangle-10" x="8.37752161" y="0" width="1.14985591" height="6.435" rx="0.825"></rect>
                    <rect id="Rectangle-10" x="11.1700288" y="0" width="1.14985591" height="6.435" rx="0.825"></rect>
                    <rect id="Rectangle-10" x="13.962536" y="0" width="1.14985591" height="6.435" rx="0.825"></rect>
                    <rect id="Rectangle-10" x="16.7550432" y="0" width="1.14985591" height="6.435" rx="0.825"></rect>
                </g>
                <rect id="Rectangle-10" fill="#4A4A4A" sketch:type="MSShapeGroup" mask="url(#mask-2)" x="21.3544669" y="16.17" width="1.14985591" height="3.795" rx="0.825"></rect>
                <rect id="Rectangle-10" fill="#4A4A4A" sketch:type="MSShapeGroup" mask="url(#mask-2)" x="23.9827089" y="16.17" width="1.14985591" height="3.795" rx="0.825"></rect>
                <rect id="Rectangle-10" fill="#4A4A4A" sketch:type="MSShapeGroup" mask="url(#mask-2)" x="26.610951" y="16.17" width="1.14985591" height="3.795" rx="0.825"></rect>
                <rect id="Rectangle-10" fill="#4A4A4A" sketch:type="MSShapeGroup" mask="url(#mask-2)" x="29.2391931" y="16.17" width="1.14985591" height="3.795" rx="0.825"></rect>
                <rect id="Rectangle-10" fill="#4A4A4A" sketch:type="MSShapeGroup" mask="url(#mask-2)" x="31.8674352" y="16.17" width="1.14985591" height="3.795" rx="0.825"></rect>
                <rect id="Rectangle-10" fill="#4A4A4A" sketch:type="MSShapeGroup" mask="url(#mask-2)" x="34.8242075" y="16.17" width="1.14985591" height="3.795" rx="0.825"></rect>
                <rect id="Rectangle-23" fill="#4A4A4A" sketch:type="MSShapeGroup" mask="url(#mask-2)" x="11.6628242" y="42.9" width="3.28530259" height="9.735" rx="2.475"></rect>
                <rect id="Rectangle-23" fill="#4A4A4A" sketch:type="MSShapeGroup" mask="url(#mask-2)" x="42.7089337" y="42.9" width="3.28530259" height="9.735" rx="2.475"></rect>
                <rect id="Rectangle-23" fill="#4A4A4A" sketch:type="MSShapeGroup" mask="url(#mask-2)" x="19.054755" y="42.9" width="3.28530259" height="9.735" rx="2.475"></rect>
                <rect id="Rectangle-23" fill="#4A4A4A" sketch:type="MSShapeGroup" mask="url(#mask-2)" x="26.610951" y="42.735" width="3.28530259" height="9.735" rx="2.475"></rect>
                <rect id="Rectangle-23" fill="#4A4A4A" sketch:type="MSShapeGroup" mask="url(#mask-2)" x="34.3314121" y="42.735" width="3.28530259" height="9.735" rx="2.475"></rect>
            </g>
        </g>
    </g>
</svg>