<?xml version="1.0" encoding="UTF-8" standalone="no"?>
<svg width="680px" height="200px" viewBox="0 0 680 200" version="1.1" xmlns="http://www.w3.org/2000/svg" xmlns:xlink="http://www.w3.org/1999/xlink" xmlns:sketch="http://www.bohemiancoding.com/sketch/ns">
    <title>logotype</title>
    <description>Created with Sketch (http://www.bohemiancoding.com/sketch)</description>
    <defs></defs>
    <g id="Page-1" stroke="none" stroke-width="1" fill="none" fill-rule="evenodd" sketch:type="MSPage">
        <g id="logotype" sketch:type="MSArtboardGroup">
            <g id="AppCivist-+-Group-copy" sketch:type="MSLayerGroup" transform="translate(53.000000, 57.000000)">
                <g id="Group-copy" transform="translate(0.000000, 6.000000)" sketch:type="MSShapeGroup">
                    <path d="M13.0593513,66.84258 C15.4079756,77.22792 20.5756214,84.52185 27.5473318,85.66572 C32.359501,86.45553 37.2947845,84.19446 41.714711,79.72944 C36.8727086,77.7672 32.261808,74.71128 28.2185774,70.72632 C22.5061616,69.88884 17.3530122,68.55282 13.0593513,66.84258 L13.0593513,66.84258 Z" id="Shape" stroke="#47585E" stroke-width="1.26" fill="#3D9BBC"></path>
                    <path d="M66.3406869,79.5743428 C49.2742409,87.3766828 27.7679096,76.9384228 18.3049221,56.2586728 C8.84214475,35.5793428 15.0056291,12.4904728 32.071865,4.68750276 C49.138101,-3.11504724 70.6446424,7.32342276 80.1072096,28.0019128 C89.5704072,48.6825028 83.4069228,71.7715828 66.3406869,79.5743428 Z" id="Shape-copy" stroke="#333333" stroke-width="1.05"></path>
                    <path id="Line" stroke="#333333" stroke-width="1.26" stroke-linecap="round" d="M41.8084123,45.99 L41.8084123,83.7336108"></path>
                    <path d="M42.271036,71.72004 C65.6166857,71.72004 84.542072,63.7977102 84.542072,54.02502 C84.542072,44.2523298 65.6166857,36.33 42.271036,36.33 C18.9253863,36.33 0,44.2523298 0,54.02502 C0,63.7977102 18.9253863,71.72004 42.271036,71.72004 Z" id="Oval-copy" stroke="#313131" stroke-width="1.05" opacity="0.8" fill="#5DA6BE"></path>
                    <path d="M42.039304,71.67699 C37.1397362,71.67699 32.4361848,71.32713 28.0599575,70.68537 C38.8368636,81.30738 53.6521682,85.32762 66.1045622,79.6341 C74.7446173,75.68379 80.5879206,67.81467 83.0260444,58.32414 C78.4014877,65.99775 61.805649,71.67699 42.039304,71.67699 L42.039304,71.67699 Z" id="Shape" stroke="#313131" stroke-width="1.05" fill-opacity="0.93" fill="#004F69"></path>
                    <path d="M57.9084327,37.13598 C53.3798883,36.30291 42.0185048,36.03432 42.0185048,36.03432 L42.0185048,3.36 C52.0039924,4.99884 58.2920616,19.24902 57.8903647,37.13682" id="Shape-copy" stroke="#313131" stroke-width="1.26" opacity="0.7" fill="#3D9BBC"></path>
                    <path d="M41.2951562,3.55350276 C51.2795934,5.19213276 57.5659819,19.4406328 57.1653354,37.3261228 C72.0062713,39.6289828 82.9170064,45.3195628 84.5366096,52.1546428 C85.2996657,44.4316828 83.9825957,36.0354628 80.3068169,28.0019128 C70.8440395,7.32342276 49.3379183,-3.11504724 32.2716823,4.68750276 C20.8756336,9.89802276 14.3430166,21.9247228 14.0761991,35.4978628 C18.7913056,15.7110328 30.3608908,1.75905276 41.2951562,3.55350276 L41.2951562,3.55350276 Z" id="Shape-copy" stroke="#313131" stroke-width="1.05" fill-opacity="0.93" fill="#004F69"></path>
                    <path d="M41.695876,47.4969246 L14.0761991,40.95" id="Line" stroke="#333333" stroke-width="1.26" stroke-linecap="round"></path>
                    <path d="M41.6115262,47.7016159 L41.6115262,3.51404589 C29.6860443,1.55663589 16.3069322,18.4843159 12.587244,41.1313459 C11.0306685,50.6075959 11.3828793,59.5404541 13.0850489,66.9511441 L41.6115262,47.7016159 Z" id="Shape-copy" stroke="#313131" stroke-width="1.26" opacity="0.7" fill="#3D9BBC"></path>
                    <path d="M42.1264924,36.46398 C41.9647211,36.46398 41.8040003,36.46608 41.6428594,36.4665 L56.8367507,37.56585 L42.4831159,47.0465984 L56.8367507,37.56585 C52.1592508,36.8193 47.4306983,36.46398 42.1264924,36.46398 Z" id="Shape" stroke="#313131" stroke-width="0.84" stroke-linejoin="bevel" fill="#3D9BBC"></path>
                    <path d="M41.6614434,2.17273346 C56.6093395,1.13550891 72.4595221,11.2589041 80.2342779,28.248689 C84.6171484,37.8265665 85.6704243,47.9176451 83.8571756,56.7874587 L41.5983198,46.7342838 L41.6614434,2.17273346 Z" id="insert" stroke="#333333" stroke-width="1.05" fill-opacity="0.93" fill="#004F69"></path>
                    <path d="M87.9312113,58.3430754 L41.8084123,47.46" id="Line" stroke="#333333" stroke-width="1.26" stroke-linecap="round"></path>
                    <path id="Line" stroke="#333333" stroke-width="1.26" stroke-linecap="round" d="M42.0185048,0 L41.8084123,47.46"></path>
                </g>
                <path d="M140.76,87 L159.48,87 L135,8.76 L113.76,8.76 L89.28,87 L107.28,87 L112.08,68.4 L135.96,68.4 L140.76,87 Z M115.68,54.6 L117.6,47.4 C119.76,39.6 121.8,30.48 123.72,22.2 L124.2,22.2 C126.24,30.36 128.4,39.6 130.56,47.4 L132.36,54.6 L115.68,54.6 Z M181.6,82.2 C185.8,86.16 190.6,88.44 195.76,88.44 C208.6,88.44 220.84,76.68 220.84,56.28 C220.84,37.92 211.96,26.04 197.56,26.04 C191.32,26.04 185.32,29.16 180.64,33.36 L180.16,33.36 L178.96,27.48 L164.56,27.48 L164.56,109.08 L182.2,109.08 L182.2,91.68 L181.6,82.2 Z M182.2,70.2 L182.2,45.84 C185.68,42.12 188.8,40.44 192.4,40.44 C199.48,40.44 202.72,45.84 202.72,56.52 C202.72,68.76 197.8,74.04 191.68,74.04 C188.68,74.04 185.32,73.08 182.2,70.2 Z M247.36,82.2 C251.56,86.16 256.36,88.44 261.52,88.44 C274.36,88.44 286.6,76.68 286.6,56.28 C286.6,37.92 277.72,26.04 263.32,26.04 C257.08,26.04 251.08,29.16 246.4,33.36 L245.92,33.36 L244.72,27.48 L230.32,27.48 L230.32,109.08 L247.96,109.08 L247.96,91.68 L247.36,82.2 Z M247.96,70.2 L247.96,45.84 C251.44,42.12 254.56,40.44 258.16,40.44 C265.24,40.44 268.48,45.84 268.48,56.52 C268.48,68.76 263.56,74.04 257.44,74.04 C254.44,74.04 251.08,73.08 247.96,70.2 Z M293.8,48.36 C293.8,74.64 310.36,88.44 330.64,88.44 C340.36,88.44 349,84.48 355.48,76.92 L345.76,66.24 C341.92,70.44 337.24,73.2 330.88,73.2 C319.36,73.2 311.92,63.84 311.92,47.76 C311.92,32.04 320.44,22.56 331.36,22.56 C336.76,22.56 340.6,24.84 344.56,28.44 L354.28,17.52 C349,12.12 340.84,7.32 331.12,7.32 C310.96,7.32 293.8,22.44 293.8,48.36 Z M372.18,18.72 C378.18,18.72 382.38,14.88 382.38,9.48 C382.38,4.08 378.18,0.36 372.18,0.36 C366.3,0.36 361.98,4.08 361.98,9.48 C361.98,14.88 366.3,18.72 372.18,18.72 Z M363.42,87 L381.06,87 L381.06,27.48 L363.42,27.48 L363.42,87 Z M407.72,87 L428.12,87 L447.56,27.48 L430.64,27.48 L422.84,55.56 C421.28,61.44 419.72,67.68 418.28,73.92 L417.8,73.92 C416.24,67.68 414.68,61.44 413.12,55.56 L405.44,27.48 L387.68,27.48 L407.72,87 Z M463.56,18.72 C469.56,18.72 473.76,14.88 473.76,9.48 C473.76,4.08 469.56,0.36 463.56,0.36 C457.68,0.36 453.36,4.08 453.36,9.48 C453.36,14.88 457.68,18.72 463.56,18.72 Z M454.8,87 L472.44,87 L472.44,27.48 L454.8,27.48 L454.8,87 Z M480.64,80.16 C486.64,85.08 495.64,88.44 503.44,88.44 C519.4,88.44 527.92,80.04 527.92,69.24 C527.92,58.32 519.4,54.12 511.84,51.36 C505.72,49.08 500.2,47.64 500.2,43.8 C500.2,40.8 502.36,39.12 506.92,39.12 C511.12,39.12 515.2,41.04 519.52,44.16 L527.44,33.6 C522.28,29.76 515.56,26.04 506.44,26.04 C492.64,26.04 483.64,33.6 483.64,44.64 C483.64,54.48 492.16,59.4 499.36,62.16 C505.48,64.56 511.48,66.36 511.48,70.32 C511.48,73.44 509.2,75.36 503.92,75.36 C498.88,75.36 493.96,73.2 488.56,69.12 L480.64,80.16 Z M538.48,65.4 C538.48,79.2 544.24,88.44 559,88.44 C564.76,88.44 569.08,87.24 572.2,86.28 L569.44,73.44 C567.88,74.04 565.72,74.64 563.8,74.64 C559.12,74.64 556.12,71.88 556.12,65.16 L556.12,41.28 L570.4,41.28 L570.4,27.48 L556.12,27.48 L556.12,11.64 L541.48,11.64 L539.44,27.48 L530.32,28.2 L530.32,41.28 L538.48,41.28 L538.48,65.4 Z" id="AppCivist" fill="#2A2A2A" sketch:type="MSShapeGroup"></path>
            </g>
        </g>
    </g>
</svg>